<?xml version="1.0" encoding="UTF-8" standalone="no"?>
<!-- Created with Inkscape (http://www.inkscape.org/) -->

<svg
   xmlns:dc="http://purl.org/dc/elements/1.1/"
   xmlns:cc="http://creativecommons.org/ns#"
   xmlns:rdf="http://www.w3.org/1999/02/22-rdf-syntax-ns#"
   xmlns:svg="http://www.w3.org/2000/svg"
   xmlns="http://www.w3.org/2000/svg"
   xmlns:sodipodi="http://sodipodi.sourceforge.net/DTD/sodipodi-0.dtd"
   xmlns:inkscape="http://www.inkscape.org/namespaces/inkscape"
   width="15.196233"
   height="8"
   id="svg4152"
   version="1.1"
   inkscape:version="0.91 r13725"
   viewBox="0 0 15.196232 8"
   sodipodi:docname="infinity.svg">
  <defs
     id="defs4154" />
  <sodipodi:namedview
     id="base"
     pagecolor="#ffffff"
     bordercolor="#ffffff"
     borderopacity="0.0"
     inkscape:pageopacity="0.0"
     inkscape:pageshadow="0"
     inkscape:zoom="7.9195959"
     inkscape:cx="24.869427"
     inkscape:cy="6.5434169"
     inkscape:document-units="px"
     inkscape:current-layer="layer1"
     showgrid="false"
     inkscape:window-width="1920"
     inkscape:window-height="1177"
     inkscape:window-x="1440"
     inkscape:window-y="0"
     inkscape:window-maximized="1"
     fit-margin-top="0"
     fit-margin-left="0"
     fit-margin-right="0"
     fit-margin-bottom="0" />
  <metadata
     id="metadata4157">
    <rdf:RDF>
      <cc:Work
         rdf:about="">
        <dc:format>image/svg+xml</dc:format>
        <dc:type
           rdf:resource="http://purl.org/dc/dcmitype/StillImage" />
        <dc:title></dc:title>
      </cc:Work>
    </rdf:RDF>
  </metadata>
  <g
     inkscape:label="Layer 1"
     inkscape:groupmode="layer"
     id="layer1"
     transform="translate(5.5599958e-5,-838.64794)">
    <g
       style="font-style:normal;font-weight:normal;font-size:51.44113159px;line-height:125%;font-family:Sans;letter-spacing:0px;word-spacing:0px;fill:#ffffff;fill-opacity:1;stroke:none;stroke-width:1px;stroke-linecap:butt;stroke-linejoin:miter;stroke-opacity:1"
       id="text4166"
       transform="matrix(0.66666667,0,0,0.66666667,-1.8533319e-5,282.21598)">
      <path
         d="m 22.794293,840.69502 q 0,1.18682 -0.414442,2.2606 -0.395605,1.07378 -1.130299,1.90267 -0.715855,0.81005 -1.751962,1.29984 -1.017268,0.4898 -2.260597,0.4898 -1.751962,0 -3.22135,-0.97959 -1.450549,-0.99843 -2.675039,-3.16484 -0.546311,0.90424 -1.205651,1.65777 -0.6593412,0.73469 -1.3940351,1.26217 -0.7346939,0.52747 -1.5259027,0.81004 -0.7723705,0.28258 -1.5824176,0.28258 -1.2244898,0 -2.2605966,-0.41444 -1.0361068,-0.41445 -1.789639,-1.18682 -0.73469387,-0.77237 -1.16797489,-1.86499 -0.414442709958,-1.11146 -0.414442709958,-2.46782 0,-1.22449 0.395604409958,-2.29827 0.41444271,-1.09262 1.14913659,-1.90267 0.7346939,-0.81005 1.7708007,-1.26217 1.0549451,-0.47095 2.3171115,-0.47095 1.6012559,0 3.089482,1.01727 1.4882264,0.99843 2.6562014,3.10832 0.54631,-0.90424 1.186813,-1.63894 0.640502,-0.73469 1.375196,-1.26216 0.753532,-0.52748 1.563579,-0.81005 0.828886,-0.30141 1.733124,-0.30141 1.243329,0 2.260597,0.43328 1.036107,0.41444 1.751962,1.18681 0.734694,0.77237 1.130299,1.88383 0.414442,1.09262 0.414442,2.43014 z m -16.9733123,3.35322 q 1.1868132,0 2.2040816,-0.81005 1.0172685,-0.82888 1.9968607,-2.6562 -0.9230773,-1.7708 -1.9403457,-2.61852 -0.9984302,-0.84773 -2.2982733,-0.84773 -0.7535322,0 -1.3563579,0.28258 -0.6028258,0.26374 -1.0172685,0.75353 -0.4144427,0.47096 -0.6405024,1.11146 -0.2260596,0.6405 -0.2260596,1.35636 0,0.67818 0.188383,1.29984 0.2072214,0.62167 0.6216641,1.09262 0.4144427,0.47096 1.0172685,0.75354 0.621664,0.28257 1.4505495,0.28257 z m 11.1522763,-6.81947 q -1.186813,0 -2.204081,0.82889 -0.998431,0.81005 -2.034537,2.63736 0.960753,1.75197 1.978022,2.61853 1.017268,0.86656 2.298273,0.86656 0.734694,0 1.337519,-0.26374 0.602826,-0.28257 1.017269,-0.75353 0.433281,-0.4898 0.659341,-1.1303 0.226059,-0.6405 0.226059,-1.37519 0,-0.71586 -0.244898,-1.33752 -0.226059,-0.64051 -0.65934,-1.09263 -0.433281,-0.47095 -1.036107,-0.73469 -0.602826,-0.26374 -1.33752,-0.26374 z"
         style="font-style:normal;font-variant:normal;font-weight:normal;font-stretch:normal;font-size:38.58084869px;font-family:'Droid Sans';-inkscape-font-specification:'Droid Sans';fill:#ffffff"
         id="path4173"
         inkscape:connector-curvature="0" />
    </g>
  </g>
</svg>
